<svg id="Layer_1" data-name="Layer 1" xmlns="http://www.w3.org/2000/svg" viewBox="0 0 70.31 88.03"><defs><style>.cls-1,.cls-2,.cls-3{fill:#333;}.cls-2,.cls-3{stroke:#333;stroke-miterlimit:10;}.cls-2{stroke-width:2px;}</style></defs><title>ipak je igra</title><path class="cls-1" d="M19.79,3.09h0l33.42,8.12.17-1.16,19,2.84L69.18,34.63c-.31,2.22-3,3.76-6.53,4L57.68,51,62.53,69,76,72.51l-.74,5.93L63.21,71.5l.92,3.41,3.68.56V85.61H53.89v-3H42.16v3H28.55V75.22l5.08-.74V43.91h.21l-15.15-6c-5-2-10-7-7.06-14.44L19.75,3.18l0-.09h0M18.48,0l-.11.28L18,.2l-.56,2.25L9.42,22.54C6,30.93,11.19,37.39,17.79,40.08h0l13.44,5.36v27l-3,.44-2,.3V88H44.55V85h7v3H70.2V78.27l3.91,2.25,3.12,1.79.44-3.57.74-5.93.26-2.07-2-.53L64.47,67,60.19,51.19l4.15-10.35c4-.7,6.78-2.91,7.2-5.88l3.25-21.72.35-2.36-2.36-.35-19-2.84-2.36-.35-.14.94L20.54.82,18.48,0Z" transform="translate(-8.35)"/><path class="cls-1" d="M43.42,63.81a4.76,4.76,0,0,1-.33,1.82,4,4,0,0,1-2.32,2.27,4.89,4.89,0,0,1-1.77.31,4.31,4.31,0,0,1-1.57-.28,4,4,0,0,1-1.24-.75,3.86,3.86,0,0,1-.85-1.1,3.7,3.7,0,0,1-.4-1.31,3.63,3.63,0,0,1,.61-.53,4.15,4.15,0,0,1,.77-.42,4.79,4.79,0,0,1,.92-.27,5.34,5.34,0,0,1,1-.1,3.86,3.86,0,0,1,1.57.31,4.34,4.34,0,0,1,1.24.81,2.79,2.79,0,0,0,.1-.75,3.17,3.17,0,0,0-.12-.85,2.39,2.39,0,0,0-.38-.79A2,2,0,0,0,40,61.6a2.09,2.09,0,0,0-1-.22,2.25,2.25,0,0,0-.71.11,2,2,0,0,0-.57.29,2.21,2.21,0,0,0-.44.43,3.09,3.09,0,0,0-.33.54l-1.8-.92a4.52,4.52,0,0,1,.62-1,3.87,3.87,0,0,1,.85-.75,4.07,4.07,0,0,1,1.08-.49,4.59,4.59,0,0,1,1.3-.18,4.83,4.83,0,0,1,1.8.32,4.12,4.12,0,0,1,1.4.9A4,4,0,0,1,43.1,62,4.72,4.72,0,0,1,43.42,63.81ZM39,66.27a2,2,0,0,0,.7-.12,2.08,2.08,0,0,0,.61-.35,3,3,0,0,0-.86-.68,2.44,2.44,0,0,0-1.18-.28,2.63,2.63,0,0,0-.65.08,2.54,2.54,0,0,0-.57.22,2.47,2.47,0,0,0,.76.82A2.06,2.06,0,0,0,39,66.27Z" transform="translate(-8.35)"/><path class="cls-1" d="M40.1,67.88v8H36.22V73.95H38V67.88Z" transform="translate(-8.35)"/><path class="cls-1" d="M45.22,63.81A4.71,4.71,0,0,1,45.54,62a4,4,0,0,1,.9-1.38,4.11,4.11,0,0,1,1.4-.9,4.83,4.83,0,0,1,1.8-.32,4.59,4.59,0,0,1,1.3.18A4.07,4.07,0,0,1,52,60.1a3.87,3.87,0,0,1,.85.75,4.52,4.52,0,0,1,.62,1l-1.8.92a3.1,3.1,0,0,0-.33-.54,2.22,2.22,0,0,0-.44-.43,2,2,0,0,0-.57-.29,2.25,2.25,0,0,0-.71-.11,2.09,2.09,0,0,0-1,.22,2,2,0,0,0-.67.58,2.38,2.38,0,0,0-.38.79,3.16,3.16,0,0,0-.12.85,2.79,2.79,0,0,0,.1.75,4.35,4.35,0,0,1,1.24-.81,3.86,3.86,0,0,1,1.57-.31,5.28,5.28,0,0,1,1,.1,4.91,4.91,0,0,1,.92.27,4.1,4.1,0,0,1,.77.42,3.63,3.63,0,0,1,.61.53,3.7,3.7,0,0,1-.4,1.31,3.87,3.87,0,0,1-.85,1.1,4,4,0,0,1-1.24.75,4.31,4.31,0,0,1-1.57.28,4.89,4.89,0,0,1-1.77-.31,4,4,0,0,1-2.32-2.27A4.75,4.75,0,0,1,45.22,63.81Zm4.42,2.46a2.06,2.06,0,0,0,1.19-.32,2.47,2.47,0,0,0,.76-.82,2.54,2.54,0,0,0-.57-.22,2.64,2.64,0,0,0-.65-.08,2.44,2.44,0,0,0-1.18.28,3,3,0,0,0-.86.68,2.08,2.08,0,0,0,.61.35A2,2,0,0,0,49.64,66.27Z" transform="translate(-8.35)"/><path class="cls-1" d="M55.25,61.44a2,2,0,0,1,.16-.79,2,2,0,0,1,.43-.64,2,2,0,0,1,2.84,0,2,2,0,0,1,.43.64,2,2,0,0,1,.16.79,1.93,1.93,0,0,1-.16.78,2,2,0,0,1-.43.63,1.94,1.94,0,0,1-.63.42,2,2,0,0,1-.78.15,2,2,0,0,1-.79-.15,1.92,1.92,0,0,1-.64-.42,2,2,0,0,1-.43-.63A1.93,1.93,0,0,1,55.25,61.44Zm0,4.78a2,2,0,0,1,.16-.79,2,2,0,0,1,.43-.64,2,2,0,0,1,2.84,0,2,2,0,0,1,.43.64,2,2,0,0,1,.16.79,1.93,1.93,0,0,1-.16.78,2,2,0,0,1-.43.63,1.94,1.94,0,0,1-.63.42,2,2,0,0,1-.78.15,2,2,0,0,1-.79-.15,1.93,1.93,0,0,1-.64-.42,2,2,0,0,1-.43-.63A1.93,1.93,0,0,1,55.25,66.22Zm1.39-4.77a.59.59,0,0,0,.18.44.61.61,0,1,0,0-.88A.59.59,0,0,0,56.64,61.45Zm0,4.78a.59.59,0,0,0,.18.44.61.61,0,1,0,0-.88A.59.59,0,0,0,56.64,66.23Z" transform="translate(-8.35)"/><path class="cls-1" d="M40.06,80.12H30.2V78.57h9.86Zm0,3.8H30.2V82.37h9.86Z" transform="translate(-8.35)"/><path class="cls-1" d="M14.4,20.74l1.55-2.54,2.54,1.55-1.55,2.54Zm2.86-4.39.39-.68a7.3,7.3,0,0,1,1.75-2,6,6,0,0,1,1.76-.91,19.63,19.63,0,0,1,2.55-.58,8.85,8.85,0,0,0,2.5-.71,3.08,3.08,0,0,0,1.15-1.12,3.62,3.62,0,0,0,.37-2.91,4,4,0,0,0-1.89-2.5,3.92,3.92,0,0,0-2.92-.55,5.5,5.5,0,0,0-2.95,2L17.85,4.71a6.94,6.94,0,0,1,4.21-2.77A6.9,6.9,0,0,1,26.93,3a7.1,7.1,0,0,1,3.37,4,5.36,5.36,0,0,1-.55,4.47,5.2,5.2,0,0,1-1.89,1.85,12.16,12.16,0,0,1-3.67,1.12,12.92,12.92,0,0,0-2.29.56,3.72,3.72,0,0,0-1.14.75,10.36,10.36,0,0,0-1.36,1.82Z" transform="translate(-8.35)"/><path class="cls-1" d="M19,29.49l3.66-2,2,3.66-3.66,2a7.39,7.39,0,0,1-3.65,1.05A5.3,5.3,0,0,1,14.18,33l.89-1.64a3.47,3.47,0,0,0,2.13.79A6.38,6.38,0,0,0,20,31.31Z" transform="translate(-8.35)"/><path class="cls-1" d="M27.46,22.45l1-2.49,2.52,1-1,2.49Zm2.28-4.21,3-9.71,1.53-4,2.71,1-1.53,4-4.28,9.21Z" transform="translate(-8.35)"/><path class="cls-1" d="M10.76,29.25l-.91-2.73A5,5,0,0,1,13,23.69a6.88,6.88,0,0,1,1.76-.32,21.26,21.26,0,0,1,2.81.1,12.24,12.24,0,0,0,1.55,0,3.62,3.62,0,0,0,2.58-1.3,6.92,6.92,0,0,0,1.21-1.85l.94,2.82a6.09,6.09,0,0,1-1.34,1.73,5.39,5.39,0,0,1-1.85,1,6.44,6.44,0,0,1-1.59.32,17.52,17.52,0,0,1-2.6-.13,7.11,7.11,0,0,0-2.86.17,3.81,3.81,0,0,0-1.48.9A8.49,8.49,0,0,0,10.76,29.25Z" transform="translate(-8.35)"/><path class="cls-1" d="M38.06,20.41l-1.89,1.53-2.33-.77,3.62-2.35,2.19.72,1.41,4-2.35-.77Z" transform="translate(-8.35)"/><path class="cls-1" d="M41.3,23.78l-2.72-.89L38,20.67,36.19,22.1l-2.7-.89,3.94-2.56,2.33.77Zm-2.47-1.13,2,.65-1.29-3.65L37.47,19l-3.3,2.14,2,.64,2-1.62Z" transform="translate(-8.35)"/><path class="cls-1" d="M23.54,10.64a2.34,2.34,0,0,1-.73-.12A2.31,2.31,0,0,1,21.33,7.6a2.24,2.24,0,0,1,1.16-1.34,2.28,2.28,0,0,1,1-.26,2.36,2.36,0,0,1,.74.12A2.31,2.31,0,0,1,25.72,9a2.23,2.23,0,0,1-1.16,1.34A2.28,2.28,0,0,1,23.54,10.64Zm0-3.49a1.15,1.15,0,0,0-.52.13,1.17,1.17,0,0,0-.52,1.57,1.11,1.11,0,0,0,.67.58,1.19,1.19,0,0,0,.37.06A1.14,1.14,0,0,0,24,9.36a1.17,1.17,0,0,0-.16-2.15A1.17,1.17,0,0,0,23.52,7.15Z" transform="translate(-8.35)"/><path class="cls-1" d="M23.52,6.15a2.19,2.19,0,0,1,.69.11A2.17,2.17,0,0,1,25.58,9a2.07,2.07,0,0,1-1.08,1.25,2.12,2.12,0,0,1-1,.24,2.18,2.18,0,0,1-.68-.11,2.16,2.16,0,0,1-1.39-2.73,2.09,2.09,0,0,1,1.08-1.26,2.12,2.12,0,0,1,1-.24m0,3.49a1.28,1.28,0,0,0,.59-.15,1.32,1.32,0,0,0-.18-2.43A1.31,1.31,0,0,0,23.52,7a1.29,1.29,0,0,0-.59.15,1.32,1.32,0,0,0,.18,2.43,1.34,1.34,0,0,0,.42.07m0-3.79h0a2.43,2.43,0,0,0-1.1.27,2.46,2.46,0,0,0-1.09,3.31,2.39,2.39,0,0,0,1.44,1.23,2.49,2.49,0,0,0,.78.13,2.43,2.43,0,0,0,1.1-.27A2.46,2.46,0,0,0,25.72,7.2,2.38,2.38,0,0,0,24.3,6a2.5,2.5,0,0,0-.78-.13Zm0,3.49a1,1,0,0,1-.33-.05,1,1,0,0,1-.13-1.88,1,1,0,0,1,.45-.11,1,1,0,0,1,.32.05A1,1,0,0,1,24,9.23a1,1,0,0,1-.45.11Z" transform="translate(-8.35)"/><path class="cls-1" d="M64.17,31.39,64.7,28l3.36.53-.53,3.36a6,6,0,0,1-1.12,2.89,4.32,4.32,0,0,1-2.36,1.44l-.62-1.39a2.84,2.84,0,0,0,1.56-1,5.2,5.2,0,0,0,.85-2.21Zm2.2-14L66.9,14l3.36.53-.53,3.36Z" transform="translate(-8.35)"/><path class="cls-1" d="M28.6,33.2l-.51,1.38a1.8,1.8,0,0,0-1.19,0,1.73,1.73,0,0,0-.89.71,10.87,10.87,0,0,0-.88,1.94q-.53,1.41-.74,1.84a3.75,3.75,0,0,1-.71,1,2,2,0,0,1-1.69.6,4.45,4.45,0,0,1-1.08-.3l-.47-.18.49-1.33.26.1a1.69,1.69,0,0,0,1.28.12,2.48,2.48,0,0,0,.82-1.32q.78-2.11,1.07-2.65a3.57,3.57,0,0,1,1.1-1.3,2.81,2.81,0,0,1,1.47-.45A3,3,0,0,1,26,31.63a6.42,6.42,0,0,1,.56-2.73q.61-1.65.69-2a1.21,1.21,0,0,0,0-.91,1.94,1.94,0,0,0-1-.62l-.26-.1L26.46,24l.47.18a4.09,4.09,0,0,1,1.15.58,2.07,2.07,0,0,1,.66,1,2.45,2.45,0,0,1,0,1.28,17.42,17.42,0,0,1-.7,2.23,11.78,11.78,0,0,0-.64,2.15,1.73,1.73,0,0,0,.2,1.12A1.8,1.8,0,0,0,28.6,33.2Z" transform="translate(-8.35)"/><path class="cls-1" d="M28.22,40.18l5.87-15.83,3.36,1.24L37,26.85l-1.83-.68L30.21,39.49l1.83.68-.47,1.26Z" transform="translate(-8.35)"/><path class="cls-1" d="M55.45,72.19l.43-1.32a14.3,14.3,0,0,1,2.15.9q-.18-1.68-.19-2.31h1.35q0,.92-.21,2.3a16.07,16.07,0,0,1,2.19-.89l.43,1.32a11.58,11.58,0,0,1-2.31.52,15.59,15.59,0,0,1,1.6,1.76l-1.11.79a23,23,0,0,1-1.27-2,15.06,15.06,0,0,1-1.21,2l-1.1-.79a19.29,19.29,0,0,1,1.54-1.76Q56.52,72.48,55.45,72.19Z" transform="translate(-8.35)"/><path class="cls-2" d="M36.47,43.56l3.63,1.25-.15.44L36.32,44ZM42,45.45l3.63,1.25-.15.44L41.8,45.89Z" transform="translate(-8.35)"/><path class="cls-1" d="M48.85,15.35a3.34,3.34,0,0,1-1.49,2.13A3.32,3.32,0,0,1,42.52,16a3.22,3.22,0,0,1-2.94.72,3.12,3.12,0,0,1-2.06-1.52,3.44,3.44,0,0,1-.39-2.62A3.34,3.34,0,0,1,43.45,12l.41-.27a3.32,3.32,0,0,1,4.6,1.06A3.34,3.34,0,0,1,48.85,15.35Zm-6.53-1.51a2,2,0,0,0-.22-1.53,1.87,1.87,0,0,0-1.25-.89,1.9,1.9,0,0,0-1.5.25,1.94,1.94,0,0,0-.87,1.25,2.07,2.07,0,0,0,.23,1.54,1.84,1.84,0,0,0,1.23.92,1.87,1.87,0,0,0,1.51-.25A2,2,0,0,0,42.31,13.85ZM47.5,15a2,2,0,0,0-.22-1.53A1.87,1.87,0,0,0,46,12.62a1.9,1.9,0,0,0-1.5.25,1.94,1.94,0,0,0-.87,1.25,2.07,2.07,0,0,0,.23,1.54,1.84,1.84,0,0,0,1.23.92,1.87,1.87,0,0,0,1.51-.25A2,2,0,0,0,47.5,15Z" transform="translate(-8.35)"/><path class="cls-1" d="M45.61,18.16a3.69,3.69,0,0,1-.83-.1,3.31,3.31,0,0,1-2.31-1.83,3.36,3.36,0,0,1-2.92.63,3.28,3.28,0,0,1-2.15-1.59A3.6,3.6,0,0,1,37,12.54a3.49,3.49,0,0,1,6.52-.78l.27-.17a3.46,3.46,0,0,1,4.81,1.11,3.66,3.66,0,0,1-1.14,4.91A3.33,3.33,0,0,1,45.61,18.16Zm-3-2.41.08.18a3,3,0,0,0,2.19,1.84,3.06,3.06,0,0,0,2.43-.41,3.21,3.21,0,0,0,1.42-2h0a3.22,3.22,0,0,0-.37-2.46,3.17,3.17,0,0,0-4.4-1l-.39.26-.15.12L43.31,12a3.2,3.2,0,0,0-6,.56,3.31,3.31,0,0,0,.37,2.51,3,3,0,0,0,2,1.45,3.09,3.09,0,0,0,2.81-.69Zm3,1a2.31,2.31,0,0,1-.52-.06,2,2,0,0,1-1.33-1,2.22,2.22,0,0,1-.24-1.65,2.09,2.09,0,0,1,.94-1.34,2,2,0,0,1,1.61-.27,2,2,0,0,1,1.34,1,2.17,2.17,0,0,1,.24,1.64h0a2.16,2.16,0,0,1-.93,1.37A2,2,0,0,1,45.61,16.78Zm-.06-4.07a1.71,1.71,0,0,0-.94.28,1.78,1.78,0,0,0-.81,1.16A1.91,1.91,0,0,0,44,15.59a1.68,1.68,0,0,0,1.14.84,1.71,1.71,0,0,0,1.4-.23A1.87,1.87,0,0,0,47.36,15h0a1.85,1.85,0,0,0-.2-1.42A1.72,1.72,0,0,0,46,12.77,2,2,0,0,0,45.55,12.71Zm-5.13,2.88a2.32,2.32,0,0,1-.52-.06,2,2,0,0,1-1.33-1,2.22,2.22,0,0,1-.24-1.65,2.1,2.1,0,0,1,.94-1.34,2,2,0,0,1,1.61-.27,2,2,0,0,1,1.34,1,2.29,2.29,0,0,1-.7,3A2,2,0,0,1,40.42,15.59Zm-.06-4.07a1.71,1.71,0,0,0-.94.28A1.78,1.78,0,0,0,38.62,13a1.91,1.91,0,0,0,.21,1.44,1.68,1.68,0,0,0,1.14.84,1.71,1.71,0,0,0,1.4-.23,1.85,1.85,0,0,0,.81-1.19h0a1.85,1.85,0,0,0-.2-1.42,1.71,1.71,0,0,0-1.15-.82A2,2,0,0,0,40.36,11.51Z" transform="translate(-8.35)"/><path class="cls-1" d="M60,29.06l0-.69.58,0,0,.69a1.51,1.51,0,0,1,1.24,1.13l.7,0,0,.59-.69,0A1.51,1.51,0,0,1,60.69,32l0,.69-.59,0,0-.7a1.49,1.49,0,0,1-1.24-1.13l-.7,0,0-.59.69,0A1.51,1.51,0,0,1,60,29.06Zm-.32.83a.92.92,0,1,0,.63-.3A.89.89,0,0,0,59.65,29.89Z" transform="translate(-8.35)"/><path class="cls-1" d="M60,32.85l0-.73A1.65,1.65,0,0,1,58.76,31l-.73,0,0-.89.72,0A1.65,1.65,0,0,1,59.81,29l0-.72.88-.06,0,.73A1.66,1.66,0,0,1,61.89,30l.73,0,0,.89-.72,0a1.65,1.65,0,0,1-1.09,1.2l0,.72Zm-1-2.14,0,.12a1.34,1.34,0,0,0,1.11,1l.12,0,0,.67.29,0,0-.66.12,0a1.35,1.35,0,0,0,.68-.4,1.37,1.37,0,0,0,.34-.71l0-.12.66,0v-.29l-.67,0,0-.12a1.36,1.36,0,0,0-1.12-1l-.12,0,0-.67-.28,0,0,.66-.12,0a1.34,1.34,0,0,0-.67.4,1.37,1.37,0,0,0-.34.71l0,.12-.66,0v.28Zm1.33.87a1.07,1.07,0,0,1-.78-1.78h0a1.07,1.07,0,1,1,.84,1.78Zm0-1.83h0a.73.73,0,0,0-.53.25h0a.77.77,0,0,0,0,1.09.72.72,0,0,0,.55.2.77.77,0,0,0,.48-1.34A.73.73,0,0,0,60.33,29.75Z" transform="translate(-8.35)"/><path class="cls-1" d="M53.91,52h1.51l0,6H53.89Z" transform="translate(-8.35)"/><path class="cls-1" d="M49.59,24.39l-1.34-.3a1.78,1.78,0,0,0-1.61-1.91,1.72,1.72,0,0,0-2.15,1.06l-1.34-.3A3,3,0,0,1,47,20.84,3,3,0,0,1,49.59,24.39Zm-2.69,1.74-2.05-.46.51-2.24,2.05.46Z" transform="translate(-8.35)"/><path class="cls-1" d="M47,26.31l-2.34-.53.57-2.53,2.34.53Zm-2-.75,1.76.4L47.23,24l-1.76-.4Zm4.69-1L48.1,24.2v-.12a1.64,1.64,0,0,0-1.49-1.76,1.57,1.57,0,0,0-2,1l-.05.11L42.95,23l.06-.16a3.11,3.11,0,0,1,4-2.19,3.1,3.1,0,0,1,2.7,3.71ZM48.4,24l1.06.24A2.78,2.78,0,0,0,47,21a2.79,2.79,0,0,0-3.64,1.84l1.06.24a1.85,1.85,0,0,1,2.27-1A1.92,1.92,0,0,1,48.4,24Z" transform="translate(-8.35)"/><path class="cls-1" d="M36.08,48.54l.74-2.16,2.16.74-.74,2.16Z" transform="translate(-8.35)"/><path class="cls-1" d="M42.07,50.6l.74-2.16,2.16.74-.74,2.16Z" transform="translate(-8.35)"/><path class="cls-1" d="M52.63,71.59v2.25H51.7V84.89H49.59V73.84H48.4V84.89H46.29V77.63H45.8a5.14,5.14,0,0,1-2.16-.35,2.55,2.55,0,0,1-1.13-1.09,3.34,3.34,0,0,1-.41-1.65A2.7,2.7,0,0,1,43,72.35a4.14,4.14,0,0,1,2.71-.76Z" transform="translate(-8.35)"/><path class="cls-3" d="M40.5,30.44c-1.08.48-2.08.87-2.79,1.13a4.77,4.77,0,0,0-.31-1.37,20,20,0,0,0,2.73-1,15.17,15.17,0,0,0-1.22-2.61l1.31-.49a16.14,16.14,0,0,1,1.12,2.5,16.12,16.12,0,0,0,2.56-1.66,5.36,5.36,0,0,0,.86,1.75c.15.14.08.23-.12.21a2.47,2.47,0,0,0-1.08.16l-1.82.82c.56,2.48-.23,6-1.93,9.72-.82,1.78-1.92,2.18-4.19,1.72a4.64,4.64,0,0,0-.22-2c1.67.86,2.53.73,3.27-.9a27.73,27.73,0,0,0,1.61-4.37,19.39,19.39,0,0,1-4.39,2.82,6.94,6.94,0,0,0-.37-1.68,15.35,15.35,0,0,0,5.06-2.86A7.13,7.13,0,0,0,40.5,30.44Zm3,8.69-.5,1.6-1.42-.44a10,10,0,0,0,.64-1.57l1.21-3.89a13,13,0,0,0,.41-1.62,25,25,0,0,0,2.38.87,21.78,21.78,0,0,0,2.4.61A12.67,12.67,0,0,0,48,36.26l-1,3.3a11.53,11.53,0,0,0-.4,1.65l-1.41-.44.31-1Zm-.45-5.46a5,5,0,0,0-.8-1.34,13.1,13.1,0,0,0,5-4.82,5.66,5.66,0,0,0,1.38,1.25c.24.15.16.39-.15.35a1.84,1.84,0,0,0-.74.47c-.25.26-.52.52-.8.8l3.33,1A20.49,20.49,0,0,0,53,32.1c-.69,1.9-1.44,4.12-3.39,10.09-.81,2.49-1.14,2.73-4.15,2.32a4,4,0,0,0-.24-2.21c1.54,1,2.42.85,2.88-.45.66-1.8,1.66-4.76,2.9-8.75l-5.19-1.62A24.45,24.45,0,0,1,43.06,33.68Zm2.84,4.89.93-3-2-.63-.93,3Z" transform="translate(-8.35)"/><path class="cls-3" d="M51.2,49.63l-1.32-.44,1.53-3.09-1.32-.44.43-1.29,1.51.51,1.05-2.16-1.38-.46L52.14,41l1.56.52,1.49-3,1.29.43-1.47,3,1.48.5,1.49-3,1.29.43-1.47,3,1.31.44-.43,1.29-1.48-.5-1.05,2.16,1.37.46L57.07,48l-1.57-.53L54,50.56l-1.32-.44L54.19,47l-1.47-.49Zm2.14-4.32,1.48.5,1-2.16-1.47-.49Z" transform="translate(-8.35)"/><path class="cls-3" d="M39.21,52.53a26.2,26.2,0,0,0-1.2,4.4l-2.1.14a22.4,22.4,0,0,1,2-4.42Zm3,0A24.88,24.88,0,0,0,41,57l-2.1.14a21.56,21.56,0,0,1,2-4.42Z" transform="translate(-8.35)"/><path class="cls-3" d="M54.29,25.65a28.8,28.8,0,0,0,3.53,7.47,30.18,30.18,0,0,0,5.52,6.19.6.6,0,0,1,.26.47.62.62,0,0,1-.14.35l-.62.71a37.29,37.29,0,0,1-3.65-3.43A29,29,0,0,1,56.4,33.9a27.15,27.15,0,0,1-2.09-3.73,33.06,33.06,0,0,1-1.54-4,33.24,33.24,0,0,1-1-4.22,27.09,27.09,0,0,1-.39-4.27,29,29,0,0,1,.3-4.48,37.28,37.28,0,0,1,1.07-4.89l.91.24a.63.63,0,0,1,.31.21.6.6,0,0,1,.06.53,30.17,30.17,0,0,0-1,8.23A28.86,28.86,0,0,0,54.29,25.65Z" transform="translate(-8.35)"/><path class="cls-1" d="M55.39,24.21A4.84,4.84,0,0,1,55,20.9a6.35,6.35,0,0,1,2.19-3.84l-1-1.53.49-2.63,2,3.08a9.73,9.73,0,0,1,4.38-1.2l-.39,2.1a8,8,0,0,0-2.94.67l2.35,3.54a6.52,6.52,0,0,1,2-1.66A3,3,0,0,1,66,19.17a2.53,2.53,0,0,1,1.84,1.25,3.68,3.68,0,0,1,.3,2.55,4,4,0,0,1-1.23,2.39,2.58,2.58,0,0,1-2.26.56,3.36,3.36,0,0,1-1.32-.55,7.47,7.47,0,0,1-1.42-1.42,5.93,5.93,0,0,1-2,1.7,3.59,3.59,0,0,1-2.09.19A3.24,3.24,0,0,1,55.39,24.21ZM57,22.84a1.79,1.79,0,0,0,1.27.86,2.09,2.09,0,0,0,1.24-.13,4.43,4.43,0,0,0,1.34-1.06l-2.66-3.93a4.21,4.21,0,0,0-1.43,2.55A2.39,2.39,0,0,0,57,22.84Zm8.92.89a1.63,1.63,0,0,0,.55-1,1.47,1.47,0,0,0-.15-1.07,1.17,1.17,0,0,0-.83-.54,1.69,1.69,0,0,0-1.15.2,5,5,0,0,0-1.29,1.18,6.12,6.12,0,0,0,.88,1,2,2,0,0,0,1,.48A1.21,1.21,0,0,0,66,23.73Z" transform="translate(-8.35)"/><path class="cls-1" d="M24.43,17.75a1.3,1.3,0,0,1,.1-.5,1.23,1.23,0,0,1,.27-.41,1.36,1.36,0,0,1,.4-.28,1.21,1.21,0,0,1,.51-.1,1.22,1.22,0,0,1,.5.1,1.31,1.31,0,0,1,.69.69,1.23,1.23,0,0,1,.1.5,1.21,1.21,0,0,1-.1.51,1.36,1.36,0,0,1-.28.4,1.24,1.24,0,0,1-.41.27,1.3,1.3,0,0,1-.5.1,1.26,1.26,0,0,1-1.28-1.28Z" transform="translate(-8.35)"/><path class="cls-3" d="M51.11,55.13H48.56v2.71H47.23V55.13H44.7v-1.2h2.54v-2.7h1.32v2.7h2.55Z" transform="translate(-8.35)"/><path class="cls-3" d="M65.44,76.81V84H56.25V76.81h1.34V83h2.58V76.81h1.34V83h2.59V76.81Z" transform="translate(-8.35)"/></svg>